<svg xmlns="http://www.w3.org/2000/svg" xmlns:xlink="http://www.w3.org/1999/xlink" width="1024" zoomAndPan="magnify" viewBox="0 0 768 767.999994" height="1024" preserveAspectRatio="xMidYMid meet" version="1.0"><defs><clipPath id="29b149da39"><path d="M 292.375 190.082031 L 475.375 190.082031 L 475.375 577.832031 L 292.375 577.832031 Z M 292.375 190.082031 " clip-rule="nonzero"/></clipPath></defs><g clip-path="url(#29b149da39)"><path fill="#eef0eb" d="M 433.34375 254.410156 L 475.621094 254.410156 L 475.621094 190.671875 L 421.636719 190.671875 L 421.636719 190.914062 C 350.664062 193.515625 336.03125 233.269531 334.8125 275.300781 L 334.648438 275.300781 L 334.648438 319.527344 L 292.375 319.527344 L 292.375 383.347656 L 334.648438 383.347656 L 334.648438 577.324219 L 410.5 577.324219 L 410.5 383.347656 L 464.886719 383.347656 L 475.621094 319.527344 L 410.5 319.527344 L 410.5 279.9375 C 410.5 265.871094 419.929688 254.410156 433.34375 254.410156 Z M 433.34375 254.410156 " fill-opacity="1" fill-rule="nonzero"/></g></svg>