<svg xmlns="http://www.w3.org/2000/svg" xmlns:xlink="http://www.w3.org/1999/xlink" width="1024" zoomAndPan="magnify" viewBox="0 0 768 767.999994" height="1024" preserveAspectRatio="xMidYMid meet" version="1.0"><defs><clipPath id="ea80127fc9"><path d="M 201.019531 201.019531 L 567 201.019531 L 567 567 L 201.019531 567 Z M 201.019531 201.019531 " clip-rule="nonzero"/></clipPath></defs><g clip-path="url(#ea80127fc9)"><path fill="#eef0eb" d="M 532.855469 457.875 C 532.039062 475.714844 529.054688 485.40625 526.578125 491.84375 C 523.253906 500.378906 519.28125 506.480469 512.847656 512.882812 C 506.480469 519.28125 500.378906 523.242188 491.84375 526.53125 C 485.40625 529.046875 475.675781 532.039062 457.839844 532.890625 C 438.554688 533.738281 432.839844 533.921875 383.9375 533.921875 C 335.082031 533.921875 329.320312 533.738281 310.039062 532.890625 C 292.199219 532.039062 282.515625 529.046875 276.078125 526.53125 C 267.5 523.242188 261.441406 519.28125 255.042969 512.882812 C 248.59375 506.480469 244.625 500.378906 241.34375 491.84375 C 238.867188 485.40625 235.839844 475.714844 235.070312 457.875 C 234.128906 438.589844 233.957031 432.785156 233.957031 383.984375 C 233.957031 335.082031 234.128906 329.320312 235.070312 310.039062 C 235.839844 292.199219 238.867188 282.515625 241.34375 276.023438 C 244.625 267.5 248.59375 261.433594 255.042969 255.03125 C 261.441406 248.640625 267.5 244.671875 276.078125 241.34375 C 282.515625 238.820312 292.199219 235.875 310.039062 235.023438 C 329.320312 234.175781 335.082031 233.957031 383.9375 233.957031 C 432.839844 233.957031 438.554688 234.175781 457.839844 235.023438 C 475.675781 235.875 485.40625 238.820312 491.84375 241.34375 C 500.378906 244.671875 506.480469 248.640625 512.847656 255.03125 C 519.28125 261.433594 523.253906 267.5 526.578125 276.023438 C 529.054688 282.515625 532.039062 292.199219 532.855469 310.039062 C 533.746094 329.320312 533.964844 335.082031 533.964844 383.984375 C 533.964844 432.785156 533.746094 438.589844 532.855469 457.875 Z M 565.789062 308.535156 C 564.894531 289.042969 561.820312 275.726562 557.253906 264.128906 C 552.609375 252.09375 546.378906 241.894531 536.179688 231.699219 C 526.027344 221.542969 515.828125 215.316406 503.792969 210.613281 C 492.152344 206.09375 478.878906 202.984375 459.375 202.132812 C 439.875 201.191406 433.644531 201.019531 383.9375 201.019531 C 334.277344 201.019531 328.003906 201.191406 308.5 202.132812 C 289.042969 202.984375 275.78125 206.09375 264.082031 210.613281 C 252.09375 215.316406 241.894531 221.542969 231.742188 231.699219 C 221.542969 241.894531 215.316406 252.09375 210.621094 264.128906 C 206.101562 275.726562 203.027344 289.042969 202.089844 308.535156 C 201.238281 328.039062 201.019531 334.277344 201.019531 383.984375 C 201.019531 433.644531 201.238281 439.875 202.089844 459.375 C 203.027344 478.832031 206.101562 492.140625 210.621094 503.792969 C 215.316406 515.78125 221.542969 526.027344 231.742188 536.179688 C 241.894531 546.332031 252.09375 552.609375 264.082031 557.300781 C 275.78125 561.820312 289.042969 564.894531 308.5 565.789062 C 328.003906 566.6875 334.277344 566.898438 383.9375 566.898438 C 433.644531 566.898438 439.875 566.6875 459.375 565.789062 C 478.878906 564.894531 492.152344 561.820312 503.792969 557.300781 C 515.828125 552.609375 526.027344 546.332031 536.179688 536.179688 C 546.378906 526.027344 552.609375 515.78125 557.253906 503.792969 C 561.820312 492.140625 564.894531 478.832031 565.789062 459.375 C 566.6875 439.875 566.898438 433.644531 566.898438 383.984375 C 566.898438 334.277344 566.6875 328.039062 565.789062 308.535156 Z M 565.789062 308.535156 " fill-opacity="1" fill-rule="nonzero"/></g><path fill="#eef0eb" d="M 383.9375 444.910156 C 350.277344 444.910156 322.964844 417.644531 322.964844 383.984375 C 322.964844 350.269531 350.277344 322.964844 383.9375 322.964844 C 417.609375 322.964844 444.957031 350.269531 444.957031 383.984375 C 444.957031 417.644531 417.609375 444.910156 383.9375 444.910156 Z M 383.9375 289.984375 C 332.050781 289.984375 290.03125 332.097656 290.03125 383.984375 C 290.03125 435.824219 332.050781 477.890625 383.9375 477.890625 C 435.824219 477.890625 477.890625 435.824219 477.890625 383.984375 C 477.890625 332.097656 435.824219 289.984375 383.9375 289.984375 Z M 383.9375 289.984375 " fill-opacity="1" fill-rule="nonzero"/></svg>