<svg xmlns="http://www.w3.org/2000/svg" xmlns:xlink="http://www.w3.org/1999/xlink" width="1024" zoomAndPan="magnify" viewBox="0 0 768 767.999994" height="1024" preserveAspectRatio="xMidYMid meet" version="1.0"><defs><clipPath id="919d98ff69"><path d="M 216.5 327 L 348 327 L 348 538 L 216.5 538 Z M 216.5 327 " clip-rule="nonzero"/></clipPath><clipPath id="2b1df2e70b"><path d="M 266 208 L 551.75 208 L 551.75 576 L 266 576 Z M 266 208 " clip-rule="nonzero"/></clipPath></defs><path fill="#eef0eb" d="M 383.996094 284.253906 C 384.230469 253.671875 383.996094 223.089844 384.230469 192.507812 L 446.570312 192.507812 C 446.335938 197.917969 447.042969 203.328125 447.984375 208.503906 L 402.109375 208.503906 L 402.109375 456.691406 C 402.34375 467.277344 399.757812 477.863281 394.582031 487.039062 C 386.582031 501.152344 371.292969 510.796875 355.058594 512.207031 C 344.710938 512.914062 334.359375 511.03125 324.949219 506.09375 C 317.890625 502.328125 312.011719 496.917969 307.304688 490.332031 C 323.300781 499.269531 344.003906 498.328125 359.53125 488.449219 C 374.351562 479.273438 384.230469 461.867188 384.230469 444.222656 C 383.996094 390.585938 383.996094 337.417969 383.996094 284.253906 Z M 486.796875 266.609375 C 495.503906 272.019531 505.148438 276.253906 515.261719 278.609375 C 521.144531 280.019531 527.261719 280.488281 533.378906 280.488281 L 533.378906 294.605469 C 515.5 290.371094 499.03125 280.488281 486.796875 266.609375 Z M 486.796875 266.609375 " fill-opacity="1" fill-rule="nonzero"/><g clip-path="url(#919d98ff69)"><path fill="#eef0eb" d="M 271.3125 344.476562 C 293.660156 330.363281 320.949219 324.714844 347.0625 328.480469 L 347.0625 343.300781 C 340.003906 343.535156 333.183594 344.476562 326.359375 345.652344 C 309.65625 349.183594 293.660156 356.238281 279.78125 366.355469 C 264.960938 377.410156 253.667969 392.46875 245.671875 409.40625 C 238.140625 425.402344 234.378906 443.046875 234.613281 460.6875 C 234.613281 480.214844 240.023438 499.035156 249.199219 516.207031 C 253.433594 523.972656 258.375 531.734375 264.960938 537.851562 C 251.785156 528.675781 240.730469 516.207031 232.496094 502.09375 C 221.441406 483.507812 216.027344 461.628906 216.5 439.753906 C 217.207031 419.757812 223.085938 399.996094 233.4375 382.824219 C 242.847656 367.53125 256.019531 353.886719 271.3125 344.476562 Z M 271.3125 344.476562 " fill-opacity="1" fill-rule="nonzero"/></g><path fill="#eef0eb" d="M 402.109375 208.503906 L 448.453125 208.503906 C 450.101562 217.445312 453.394531 225.914062 457.394531 233.910156 C 463.980469 246.378906 473.152344 257.4375 484.917969 264.726562 C 485.621094 265.199219 486.328125 265.90625 486.796875 266.609375 C 499.03125 280.488281 515.5 290.371094 533.613281 294.371094 C 533.847656 310.601562 533.613281 327.070312 533.613281 343.300781 C 503.03125 343.535156 472.449219 333.890625 447.746094 316.011719 C 447.746094 354.828125 447.746094 393.878906 447.984375 432.695312 C 447.984375 437.871094 448.21875 443.046875 447.984375 448.457031 C 446.570312 467.277344 440.691406 486.097656 431.28125 502.5625 C 423.28125 516.914062 411.988281 529.617188 398.816406 539.261719 C 381.878906 551.964844 360.707031 559.023438 339.535156 559.492188 C 328.710938 559.730469 317.890625 559.257812 307.304688 556.90625 C 292.484375 553.613281 278.371094 547.496094 265.902344 538.792969 L 265.195312 538.085938 C 259.078125 531.96875 253.902344 524.207031 249.433594 516.441406 C 240.257812 499.742188 234.847656 480.449219 234.847656 460.925781 C 234.613281 443.28125 238.378906 425.402344 245.90625 409.640625 C 253.667969 392.9375 265.429688 377.648438 280.015625 366.589844 C 293.894531 356.238281 309.65625 349.183594 326.59375 345.890625 C 333.417969 344.476562 340.476562 343.773438 347.296875 343.535156 C 347.53125 349.652344 347.296875 356.003906 347.53125 361.886719 L 347.53125 393.410156 C 339.769531 390.820312 331.066406 390.820312 322.832031 392.703125 C 313.1875 394.820312 304.011719 399.289062 296.25 405.640625 C 291.542969 409.640625 287.542969 414.582031 284.957031 419.992188 C 280.015625 429.167969 278.371094 439.988281 279.546875 450.339844 C 280.722656 460.453125 284.957031 470.097656 291.542969 477.628906 C 295.777344 483.039062 301.660156 487.039062 307.304688 490.800781 C 312.011719 497.386719 317.890625 502.796875 324.949219 506.5625 C 334.125 511.503906 344.710938 513.621094 355.058594 512.679688 C 371.292969 511.503906 386.347656 501.621094 394.582031 487.507812 C 399.757812 478.332031 402.34375 467.746094 402.109375 457.160156 C 402.34375 373.882812 402.109375 291.074219 402.109375 208.503906 Z M 402.109375 208.503906 " fill-opacity="1" fill-rule="nonzero"/><g clip-path="url(#2b1df2e70b)"><path fill="#eef0eb" d="M 448.21875 208.503906 C 453.628906 208.738281 459.039062 208.503906 464.683594 208.503906 C 464.683594 226.617188 470.332031 244.730469 480.917969 259.554688 C 482.328125 261.433594 483.503906 263.082031 484.917969 264.726562 C 472.917969 257.4375 463.507812 246.378906 457.394531 233.910156 C 453.394531 226.148438 450.101562 217.445312 448.21875 208.503906 Z M 533.378906 294.371094 C 539.257812 295.78125 545.375 296.25 551.492188 296.25 L 551.492188 359.296875 C 520.675781 359.53125 489.855469 349.183594 464.683594 331.066406 L 464.683594 455.984375 C 464.921875 465.394531 464.214844 474.804688 462.097656 484.214844 C 456.214844 512.445312 439.277344 537.851562 416.222656 554.316406 C 403.992188 563.257812 389.875 569.375 375.054688 572.667969 C 357.175781 576.667969 338.59375 576.429688 320.949219 571.960938 C 300.011719 566.550781 280.722656 555.023438 266.136719 539.027344 C 278.605469 547.964844 292.71875 553.847656 307.539062 557.140625 C 318.125 559.492188 328.949219 560.199219 339.769531 559.730469 C 360.941406 559.257812 381.878906 552.199219 399.050781 539.496094 C 412.226562 529.851562 423.046875 517.148438 431.515625 502.796875 C 440.925781 486.332031 447.042969 467.746094 448.21875 448.691406 C 448.453125 443.515625 448.453125 438.339844 448.21875 432.929688 C 447.984375 393.878906 447.984375 355.0625 447.984375 316.246094 C 472.917969 334.125 503.5 343.769531 533.847656 343.535156 C 533.378906 327.070312 533.613281 310.601562 533.378906 294.371094 Z M 533.378906 294.371094 " fill-opacity="1" fill-rule="nonzero"/></g><path fill="#eef0eb" d="M 347.296875 343.066406 C 353.179688 343.066406 359.53125 343.300781 365.410156 344.242188 L 365.410156 408.933594 C 356.707031 405.875 347.0625 405.640625 338.121094 407.757812 C 321.183594 411.523438 306.835938 424.460938 300.71875 440.929688 C 294.835938 457.160156 297.1875 475.980469 307.539062 489.859375 C 301.660156 486.332031 296.25 482.097656 291.777344 476.6875 C 285.191406 469.160156 280.957031 459.277344 279.78125 449.398438 C 278.605469 439.046875 280.25 428.226562 285.191406 419.050781 C 287.78125 413.640625 292.015625 408.699219 296.484375 404.699219 C 304.011719 398.113281 313.421875 394.113281 323.066406 391.761719 C 331.066406 389.878906 339.769531 389.878906 347.765625 392.46875 L 347.765625 360.945312 C 347.296875 355.535156 347.765625 349.417969 347.296875 343.066406 Z M 347.296875 343.066406 " fill-opacity="1" fill-rule="nonzero"/></svg>