<svg xmlns="http://www.w3.org/2000/svg" xmlns:xlink="http://www.w3.org/1999/xlink" width="1024" zoomAndPan="magnify" viewBox="0 0 768 767.999994" height="1024" preserveAspectRatio="xMidYMid meet" version="1.0"><defs><clipPath id="c5d8080ec5"><path d="M 201 200 L 567.757812 200 L 567.757812 566 L 201 566 Z M 201 200 " clip-rule="nonzero"/></clipPath></defs><g clip-path="url(#c5d8080ec5)"><path fill="#eef0eb" d="M 383.867188 200.132812 C 281.832031 200.476562 200.28125 283.441406 201.613281 385.46875 C 201.671875 390.59375 201.949219 395.707031 202.441406 400.8125 C 202.933594 405.914062 203.640625 410.988281 204.5625 416.03125 C 205.480469 421.074219 206.613281 426.066406 207.957031 431.015625 C 209.296875 435.960938 210.847656 440.84375 212.601562 445.660156 C 214.355469 450.476562 216.3125 455.210938 218.464844 459.863281 C 220.621094 464.515625 222.96875 469.066406 225.507812 473.519531 C 228.046875 477.976562 230.769531 482.3125 233.671875 486.535156 C 236.578125 490.761719 239.65625 494.855469 242.910156 498.816406 C 243.417969 499.441406 243.878906 500.101562 244.292969 500.796875 C 244.703125 501.492188 245.0625 502.214844 245.367188 502.964844 C 245.671875 503.710938 245.917969 504.476562 246.105469 505.261719 C 246.296875 506.046875 246.425781 506.84375 246.496094 507.648438 C 246.566406 508.453125 246.578125 509.257812 246.527344 510.066406 C 246.476562 510.871094 246.367188 511.667969 246.195312 512.457031 C 246.027344 513.25 245.800781 514.019531 245.515625 514.777344 C 245.230469 515.53125 244.890625 516.261719 244.496094 516.96875 L 228.742188 545.203125 C 224.371094 553.027344 231.488281 562.285156 240.175781 560.070312 L 293.539062 546.484375 C 295.398438 546.011719 297.285156 545.875 299.195312 546.070312 C 301.105469 546.265625 302.925781 546.785156 304.652344 547.625 C 316.449219 553.359375 328.726562 557.761719 341.480469 560.839844 C 354.230469 563.917969 367.164062 565.601562 380.28125 565.882812 C 482.867188 568.199219 567.074219 486.226562 567.394531 383.613281 C 567.710938 282.125 485.363281 199.789062 383.867188 200.132812 Z M 384.496094 543.390625 C 381.871094 543.390625 379.25 543.328125 376.628906 543.199219 C 374.007812 543.070312 371.390625 542.878906 368.777344 542.621094 C 366.167969 542.363281 363.5625 542.042969 360.964844 541.65625 C 358.371094 541.273438 355.785156 540.824219 353.210938 540.3125 C 350.636719 539.800781 348.078125 539.222656 345.53125 538.585938 C 342.984375 537.949219 340.457031 537.25 337.945312 536.488281 C 335.433594 535.726562 332.941406 534.902344 330.472656 534.019531 C 328 533.132812 325.554688 532.191406 323.128906 531.1875 C 320.703125 530.179688 318.304688 529.117188 315.933594 527.996094 C 313.558594 526.875 311.21875 525.695312 308.902344 524.457031 C 306.585938 523.21875 304.304688 521.925781 302.054688 520.578125 C 299.804688 519.230469 297.585938 517.824219 295.402344 516.367188 C 293.222656 514.910156 291.078125 513.398438 288.96875 511.835938 C 286.859375 510.273438 284.792969 508.65625 282.765625 506.992188 C 280.734375 505.328125 278.75 503.613281 276.804688 501.851562 C 274.859375 500.089844 272.960938 498.28125 271.101562 496.425781 C 269.246094 494.566406 267.4375 492.667969 265.675781 490.722656 C 263.914062 488.777344 262.199219 486.792969 260.535156 484.761719 C 258.871094 482.734375 257.253906 480.667969 255.691406 478.558594 C 254.128906 476.449219 252.617188 474.304688 251.160156 472.125 C 249.703125 469.941406 248.296875 467.722656 246.949219 465.472656 C 245.601562 463.222656 244.308594 460.941406 243.070312 458.625 C 241.832031 456.308594 240.652344 453.96875 239.53125 451.59375 C 238.410156 449.222656 237.34375 446.824219 236.339844 444.398438 C 235.335938 441.972656 234.390625 439.527344 233.507812 437.054688 C 232.625 434.582031 231.800781 432.09375 231.039062 429.582031 C 230.277344 427.070312 229.578125 424.542969 228.941406 421.996094 C 228.300781 419.449219 227.726562 416.890625 227.214844 414.316406 C 226.703125 411.742188 226.253906 409.15625 225.871094 406.558594 C 225.484375 403.964844 225.164062 401.359375 224.90625 398.75 C 224.648438 396.136719 224.457031 393.519531 224.328125 390.898438 C 224.199219 388.277344 224.132812 385.65625 224.132812 383.03125 C 224.132812 294.464844 295.933594 222.667969 384.496094 222.667969 C 472.71875 222.667969 544.300781 293.910156 544.855469 382 C 545.410156 470.386719 472.886719 543.390625 384.496094 543.390625 Z M 384.496094 543.390625 " fill-opacity="1" fill-rule="nonzero"/></g><path fill="#eef0eb" d="M 355.835938 305.066406 L 355.910156 305.214844 L 365.472656 324.183594 C 365.988281 325.203125 366.417969 326.257812 366.761719 327.347656 C 367.105469 328.4375 367.359375 329.546875 367.523438 330.675781 C 367.691406 331.808594 367.761719 332.945312 367.746094 334.085938 C 367.726562 335.230469 367.617188 336.363281 367.414062 337.488281 C 367.214844 338.613281 366.925781 339.714844 366.546875 340.792969 C 366.167969 341.871094 365.703125 342.910156 365.15625 343.914062 C 364.609375 344.914062 363.984375 345.867188 363.285156 346.769531 C 362.585938 347.671875 361.816406 348.515625 360.980469 349.292969 C 360.148438 350.066406 359.382812 350.898438 358.683594 351.796875 C 357.984375 352.691406 357.363281 353.636719 356.816406 354.632812 C 356.269531 355.628906 355.804688 356.660156 355.425781 357.730469 C 355.046875 358.800781 354.753906 359.894531 354.546875 361.011719 C 354.34375 362.128906 354.230469 363.257812 354.207031 364.390625 C 354.183594 365.527344 354.25 366.65625 354.40625 367.78125 C 354.566406 368.90625 354.8125 370.011719 355.148438 371.097656 C 355.484375 372.183594 355.902344 373.234375 356.410156 374.25 C 362.148438 385.78125 372.097656 401.671875 387.277344 413.140625 C 388.125 413.78125 389.011719 414.355469 389.945312 414.867188 C 390.875 415.375 391.839844 415.8125 392.839844 416.179688 C 393.835938 416.542969 394.855469 416.832031 395.894531 417.042969 C 396.9375 417.257812 397.988281 417.390625 399.046875 417.445312 C 400.109375 417.5 401.167969 417.476562 402.222656 417.375 C 403.28125 417.273438 404.324219 417.089844 405.355469 416.832031 C 406.386719 416.574219 407.390625 416.238281 408.371094 415.828125 C 409.351562 415.421875 410.292969 414.941406 411.203125 414.390625 L 417.363281 410.640625 C 418.742188 409.800781 420.203125 409.128906 421.738281 408.621094 C 423.273438 408.113281 424.84375 407.785156 426.457031 407.636719 C 428.066406 407.488281 429.671875 407.523438 431.273438 407.742188 C 432.875 407.960938 434.433594 408.355469 435.945312 408.929688 L 460.425781 418.238281 C 461.078125 418.484375 461.714844 418.765625 462.335938 419.074219 C 462.960938 419.382812 463.566406 419.722656 464.15625 420.09375 C 464.746094 420.460938 465.316406 420.859375 465.867188 421.285156 C 466.417969 421.710938 466.945312 422.160156 467.449219 422.636719 C 467.957031 423.117188 468.4375 423.617188 468.894531 424.140625 C 469.351562 424.664062 469.78125 425.210938 470.1875 425.777344 C 470.589844 426.34375 470.964844 426.929688 471.308594 427.535156 C 471.65625 428.136719 471.96875 428.757812 472.253906 429.390625 C 472.539062 430.027344 472.792969 430.671875 473.015625 431.332031 C 473.238281 431.992188 473.425781 432.660156 473.582031 433.339844 C 473.738281 434.015625 473.859375 434.699219 473.945312 435.390625 C 474.035156 436.082031 474.089844 436.773438 474.109375 437.46875 C 474.132812 438.164062 474.117188 438.859375 474.070312 439.550781 C 474.023438 440.246094 473.941406 440.9375 473.824219 441.621094 C 473.707031 442.308594 473.558594 442.988281 473.378906 443.660156 C 473.195312 444.328125 472.980469 444.992188 472.734375 445.640625 C 472.449219 446.390625 472.121094 447.117188 471.753906 447.828125 L 464.96875 460.980469 C 464.421875 462.042969 463.785156 463.054688 463.066406 464.007812 C 462.347656 464.964844 461.550781 465.855469 460.679688 466.675781 C 459.8125 467.5 458.878906 468.242188 457.882812 468.90625 C 456.886719 469.570312 455.84375 470.148438 454.75 470.636719 C 453.65625 471.121094 452.53125 471.515625 451.371094 471.8125 C 450.210938 472.109375 449.035156 472.308594 447.84375 472.40625 C 446.648438 472.507812 445.457031 472.503906 444.265625 472.402344 C 443.074219 472.300781 441.898438 472.097656 440.738281 471.796875 C 402.285156 461.847656 310.644531 427.269531 303.261719 322.703125 C 303.1875 321.671875 303.191406 320.636719 303.269531 319.605469 C 303.347656 318.574219 303.5 317.554688 303.726562 316.542969 C 303.953125 315.535156 304.25 314.546875 304.621094 313.582031 C 304.992188 312.617188 305.433594 311.683594 305.941406 310.78125 C 306.445312 309.878906 307.015625 309.019531 307.648438 308.199219 C 308.285156 307.382812 308.972656 306.613281 309.71875 305.894531 C 310.464844 305.175781 311.257812 304.519531 312.097656 303.914062 C 312.941406 303.3125 313.820312 302.777344 314.742188 302.304688 L 327.226562 295.886719 C 327.847656 295.570312 328.480469 295.28125 329.125 295.027344 C 329.773438 294.769531 330.429688 294.546875 331.101562 294.355469 C 331.769531 294.164062 332.445312 294.007812 333.128906 293.882812 C 333.816406 293.757812 334.503906 293.667969 335.199219 293.609375 C 335.890625 293.550781 336.585938 293.527344 337.28125 293.539062 C 337.976562 293.550781 338.671875 293.597656 339.363281 293.675781 C 340.054688 293.753906 340.738281 293.867188 341.417969 294.015625 C 342.097656 294.160156 342.769531 294.339844 343.433594 294.550781 C 344.09375 294.765625 344.746094 295.011719 345.382812 295.285156 C 346.023438 295.5625 346.644531 295.871094 347.253906 296.207031 C 347.863281 296.546875 348.453125 296.914062 349.023438 297.308594 C 349.597656 297.703125 350.148438 298.125 350.679688 298.578125 C 351.210938 299.027344 351.71875 299.5 352.203125 300 C 352.6875 300.5 353.144531 301.023438 353.578125 301.566406 C 354.011719 302.113281 354.414062 302.675781 354.792969 303.261719 C 355.167969 303.847656 355.515625 304.449219 355.835938 305.066406 Z M 355.835938 305.066406 " fill-opacity="1" fill-rule="nonzero"/></svg>